<?xml version="1.0" encoding="utf-8"?>
<!-- Generator: Adobe Illustrator 16.0.0, SVG Export Plug-In . SVG Version: 6.00 Build 0)  -->
<!DOCTYPE svg PUBLIC "-//W3C//DTD SVG 1.0//EN" "http://www.w3.org/TR/2001/REC-SVG-20010904/DTD/svg10.dtd">
<svg version="1.0" id="Layer_1" xmlns="http://www.w3.org/2000/svg" xmlns:xlink="http://www.w3.org/1999/xlink" x="0px" y="0px"
	 width="100px" height="100px" viewBox="0 0 100 100" enable-background="new 0 0 100 100" xml:space="preserve">
<circle fill="#EEEAE8" cx="19.999" cy="66.664" r="3.333"/>
<path fill="#C3996B" d="M19.999,56.664c-5.52,0-9.999,4.479-9.999,10c0,5.526,4.479,9.999,9.999,9.999
	c5.529,0,10.002-4.473,10.002-9.999C30.001,61.144,25.528,56.664,19.999,56.664z M19.999,69.996c-1.842,0-3.333-1.49-3.333-3.332
	c0-1.843,1.491-3.333,3.333-3.333c1.843,0,3.333,1.49,3.333,3.333C23.333,68.506,21.842,69.996,19.999,69.996z"/>
<path fill="#D7CCC8" d="M18.929,68.926c0-1.842,1.491-3.332,3.333-3.332c0.323,0,0.629,0.059,0.924,0.145
	c-0.402-1.387-1.668-2.407-3.187-2.407c-1.843,0-3.333,1.49-3.333,3.333c0,1.519,1.02,2.784,2.409,3.187
	C18.989,69.556,18.929,69.249,18.929,68.926z"/>
<circle fill="#EEEAE8" cx="79.999" cy="66.664" r="3.333"/>
<path fill="#C3996B" d="M79.998,56.664c-5.52,0-9.999,4.479-9.999,10c0,5.526,4.479,9.999,9.999,9.999
	c5.53,0,10.002-4.473,10.002-9.999C90,61.144,85.528,56.664,79.998,56.664z M79.998,69.996c-1.842,0-3.332-1.49-3.332-3.332
	c0-1.843,1.49-3.333,3.332-3.333c1.843,0,3.333,1.49,3.333,3.333C83.331,68.506,81.841,69.996,79.998,69.996z"/>
<path fill="#D7CCC8" d="M78.928,68.926c0-1.842,1.491-3.332,3.333-3.332c0.323,0,0.63,0.059,0.925,0.145
	c-0.402-1.387-1.669-2.407-3.188-2.407c-1.842,0-3.332,1.49-3.332,3.333c0,1.519,1.019,2.784,2.407,3.187
	C78.988,69.556,78.928,69.249,78.928,68.926z"/>
<polygon fill="#E0F2F7" points="30,46.667 43.333,46.667 43.333,54.209 54.647,46.667 83.331,46.667 83.331,16.668 30,16.668 "/>
<polygon fill="#B6E2EB" points="83.331,46.667 54.647,46.667 43.333,54.209 43.333,46.667 30,46.667 30,16.668 34,16.668 34,42.667 
	47.333,42.667 47.333,46.736 53.437,42.667 83.331,42.667 "/>
<path fill="#88D3E1" d="M83.331,10.001H30c-3.667,0-6.667,3-6.667,6.667v30c0,3.667,3,6.667,6.667,6.667h6.667v13.333l20-13.333
	h26.665c3.665,0,6.667-3,6.667-6.667v-30C89.998,13.001,86.996,10.001,83.331,10.001z M83.331,46.667H54.647l-11.315,7.542v-7.542
	H30v-30h53.332V46.667z"/>
<polygon fill="#2CABE1" points="56.772,40 51.556,40 56.556,23.334 61.775,23.334 "/>
<path fill="#7CB342" d="M43.618,23.334l-5.98,5.977c-1.295,1.296-1.295,3.417,0,4.714l5.98,5.977l3.537-3.535l-4.8-4.798l4.8-4.797
	L43.618,23.334z"/>
<path fill="#7CB342" d="M69.719,40l5.977-5.977c1.297-1.295,1.297-3.418,0-4.713l-5.977-5.977l-3.534,3.535l4.799,4.798
	l-4.799,4.797L69.719,40z"/>
<path fill="#7CB342" d="M36.667,89.996c0-3.683-2.985-6.667-6.667-6.667l-20,0.003v6.667L36.667,89.996z"/>
<path fill="#7CB342" d="M63.332,89.996c0-3.683,2.985-6.667,6.667-6.667l19.999,0.003v6.667L63.332,89.996z"/>
<path fill="#568B3F" d="M67.331,89.996c0-3.679,2.979-6.659,6.655-6.666l-3.987-0.001c-3.682,0-6.667,2.984-6.667,6.667H67.331z"/>
<rect x="10" y="83.332" fill="#568B3F" width="4" height="6.667"/>
<rect x="67.366" y="34.319" transform="matrix(-0.7071 0.7071 -0.7071 -0.7071 144.449 13.8035)" fill="#568B3F" width="4" height="4.999"/>
<rect x="41.973" y="34.321" transform="matrix(0.7071 0.7071 -0.7071 0.7071 38.9151 -20.3088)" fill="#568B3F" width="4" height="4.999"/>
<polygon fill="#0077BD" points="52.756,36 51.556,40 56.772,40 57.974,36 "/>
</svg>
