<?xml version="1.0" encoding="utf-8"?>
<!-- Generator: Adobe Illustrator 16.0.0, SVG Export Plug-In . SVG Version: 6.00 Build 0)  -->
<!DOCTYPE svg PUBLIC "-//W3C//DTD SVG 1.0//EN" "http://www.w3.org/TR/2001/REC-SVG-20010904/DTD/svg10.dtd">
<svg version="1.0" id="Layer_1" xmlns="http://www.w3.org/2000/svg" xmlns:xlink="http://www.w3.org/1999/xlink" x="0px" y="0px"
	 width="100px" height="100px" viewBox="0 0 100 100" enable-background="new 0 0 100 100" xml:space="preserve">
<rect x="16.667" y="20" fill="#E0F2F7" width="53.333" height="40.002"/>
<path fill="#BDBCBC" d="M70,13.333H16.667C13.001,13.333,10,16.335,10,20v40.002c0,3.664,3.001,6.665,6.667,6.665h23.332v6.667h-10
	V80h26.668v-6.666H46.666v-6.667H70c3.666,0,6.667-3.001,6.667-6.665V20C76.667,16.335,73.666,13.333,70,13.333z M70,60.002H16.667
	V20H70V60.002z"/>
<rect x="39.999" y="66.667" fill="#9D9D9D" width="6.667" height="4"/>
<rect x="52.667" y="73.334" fill="#9D9D9D" width="4" height="6.666"/>
<path fill="#FFC00E" d="M73.334,58.836c-4.681-3.443-10.43-5.503-16.667-5.503V80c6.237,0,11.986,2.494,16.667,6.667
	C78.008,82.494,83.756,80,90,80V53.333C83.756,53.333,78.008,55.393,73.334,58.836z M70,76.479
	c-2.148-1.049-4.381-1.797-6.666-2.317V61.068c2.402,0.781,4.655,1.979,6.666,3.567V76.479z M83.334,74.161
	c-2.292,0.521-4.524,1.269-6.667,2.317V64.636c2.011-1.589,4.265-2.786,6.667-3.567V74.161z"/>
<path fill="#B6E2EB" d="M56.667,49.332h-4v6.67h-32V20h-4v40.002h40v-6.669c4.827,0,9.359,1.237,13.333,3.392v-4.464
	C65.833,50.342,61.318,49.332,56.667,49.332z"/>
<path fill="#7CB342" d="M36.178,37.643l-9.31-9.31l-3.535,3.535l8.131,8.131l-8.131,8.132l3.535,3.535l9.31-9.31
	C37.479,41.054,37.479,38.944,36.178,37.643z"/>
<rect x="43.333" y="37.499" fill="#2CABE1" width="20.001" height="5"/>
<rect x="43.333" y="37.499" fill="#0077BD" width="4" height="5"/>
<path fill="#FFF8E1" d="M63.334,74.161V61.068c2.402,0.781,4.655,1.979,6.666,3.567v11.843
	C67.852,75.43,65.619,74.682,63.334,74.161z"/>
<path fill="#FFF8E1" d="M76.667,76.479V64.636c2.011-1.589,4.265-2.786,6.667-3.567v13.093C81.042,74.682,78.81,75.43,76.667,76.479
	z"/>
<path fill="#9D9D9D" d="M73.334,58.836c1.058-0.779,2.172-1.482,3.333-2.112V52.26c-1.138,0.523-2.255,1.102-3.334,1.762
	c-1.08-0.659-2.195-1.237-3.333-1.761v4.464C71.161,57.354,72.275,58.058,73.334,58.836z"/>
<rect x="52.667" y="60.002" fill="#9D9D9D" width="4" height="6.665"/>
<path fill="#FFEBB2" d="M66.534,62.416c-1.031-0.531-2.098-0.989-3.2-1.348v13.093c1.08,0.245,2.147,0.547,3.2,0.903V62.416z"/>
<path fill="#FFEBB2" d="M79.867,62.544c-1.12,0.597-2.19,1.295-3.2,2.092v11.843c1.046-0.512,2.114-0.95,3.2-1.327V62.544z"/>
<rect x="24.514" y="45.984" transform="matrix(-0.7071 0.7071 -0.7071 -0.7071 79.5454 64.018)" fill="#568B3F" width="4" height="4.999"/>
</svg>
