<?xml version="1.0" encoding="utf-8"?>
<!-- Generator: Adobe Illustrator 16.0.0, SVG Export Plug-In . SVG Version: 6.00 Build 0)  -->
<!DOCTYPE svg PUBLIC "-//W3C//DTD SVG 1.0//EN" "http://www.w3.org/TR/2001/REC-SVG-20010904/DTD/svg10.dtd">
<svg version="1.0" id="Layer_1" xmlns="http://www.w3.org/2000/svg" xmlns:xlink="http://www.w3.org/1999/xlink" x="0px" y="0px"
	 width="100px" height="100px" viewBox="0 0 100 100" enable-background="new 0 0 100 100" xml:space="preserve">
<polygon fill="#2CABE1" points="62.57,36.667 57.42,36.667 64.087,10.001 69.243,10.001 "/>
<path fill="#7CB342" d="M78.052,10.001l10.978,10.977c1.295,1.295,1.295,3.417,0,4.713L78.052,36.667l-3.535-3.536l9.8-9.798
	l-9.8-9.797L78.052,10.001z"/>
<path fill="#7CB342" d="M48.608,36.667L37.633,25.69c-1.296-1.296-1.296-3.418,0-4.713l10.975-10.977l3.536,3.535l-9.798,9.797
	l9.798,9.798L48.608,36.667z"/>
<rect x="46.962" y="30.985" transform="matrix(0.707 0.7072 -0.7072 0.707 38.0282 -24.8156)" fill="#568B3F" width="4" height="5"/>
<rect x="75.699" y="30.985" transform="matrix(-0.707 0.7072 -0.7072 -0.707 156.3122 2.2078)" fill="#568B3F" width="4" height="5"/>
<rect x="10" y="43.333" fill="#455A64" width="6.666" height="46.663"/>
<path fill="#C3996B" d="M16.667,78.825l15.145,3.79c2.723,0.678,7.723,0.938,10.491,0.527l41.008-6.653
	C83.215,72.896,80.276,70,76.665,70H30v-6.669h13.334c0-3.672-2.992-6.665-6.666-6.665h-20L16.666,50h20
	c7.363,0,13.333,5.969,13.333,13.331h26.667c7.362,0,13.334,5.969,13.334,13.331c0,1.843-0.747,3.508-1.953,4.714
	c-0.614,0.62-1.349,1.107-2.165,1.446L43.26,89.736c-3.626,0.528-9.505,0.236-13.062-0.659l-13.531-3.378V78.825z"/>
<rect x="16.666" y="50" fill="#A87C4F" width="4" height="6.666"/>
<polygon fill="#A87C4F" points="20.667,79.826 16.667,78.825 16.667,85.699 20.667,86.697 "/>
<path fill="#EEEAE8" d="M16.667,78.825l15.145,3.79c2.723,0.678,7.723,0.938,10.491,0.527l41.008-6.653
	C83.215,72.896,80.276,70,76.665,70H30v-6.669h13.334c0-3.672-2.992-6.665-6.666-6.665h-20V78.825z"/>
<path fill="#D7CCC8" d="M16.667,56.666v22.159l15.145,3.79c2.723,0.678,7.723,0.938,10.491,0.527l41.008-6.653
	c-0.039-1.438-0.537-2.76-1.349-3.833l-40.246,6.528c-2.209,0.329-6.722,0.1-8.934-0.45l-12.116-3.031V56.666H16.667z"/>
<path fill="#A87C4F" d="M43.333,63.331h6.665c0-1.394-0.215-2.737-0.612-4h-7.4C42.828,60.448,43.333,61.831,43.333,63.331z"/>
<polygon fill="#0077BD" points="58.42,32.667 57.42,36.667 62.57,36.667 63.571,32.667 "/>
</svg>
