<?xml version="1.0" encoding="utf-8"?>
<!-- Generator: Adobe Illustrator 16.0.0, SVG Export Plug-In . SVG Version: 6.00 Build 0)  -->
<!DOCTYPE svg PUBLIC "-//W3C//DTD SVG 1.0//EN" "http://www.w3.org/TR/2001/REC-SVG-20010904/DTD/svg10.dtd">
<svg version="1.0" id="Layer_1" xmlns="http://www.w3.org/2000/svg" xmlns:xlink="http://www.w3.org/1999/xlink" x="0px" y="0px"
	 width="100px" height="100px" viewBox="0 0 100 100" enable-background="new 0 0 100 100" xml:space="preserve">
<path fill="#FFC00E" d="M48.251,52.966c-3.27,2.326-7.266,3.701-11.584,3.701c-11.048,0-20-8.955-20-20
	c0-9.912,7.207-18.131,16.666-19.718v-6.734C20.181,11.857,10,23.07,10,36.667c0,14.727,11.94,26.667,26.667,26.667
	c6.162,0,11.831-2.096,16.347-5.606L48.251,52.966z"/>
<path fill="#BDBCBC" d="M59.756,23.333h16.911V30h6.666V16.667H54.295C56.456,18.573,58.303,20.824,59.756,23.333z"/>
<path fill="#BDBCBC" d="M30,76.664h-6.666V59.756c-2.51-1.453-4.76-3.3-6.667-5.461v29.034H30V76.664z"/>
<path fill="#FFF8E1" d="M33.333,16.949v21.098l14.918,14.919c-3.27,2.326-7.266,3.701-11.584,3.701c-11.048,0-20-8.955-20-20
	C16.667,26.755,23.874,18.535,33.333,16.949z"/>
<rect x="36.667" y="76.667" fill="#FFF3E1" width="46.666" height="6.666"/>
<rect x="36.667" y="76.667" fill="#FFDFB1" width="4" height="6.666"/>
<path fill="#9D9D9D" d="M23.333,64.273v-4.518c-2.51-1.453-4.76-3.3-6.667-5.461v5.59C18.68,61.62,20.917,63.102,23.333,64.273z"/>
<rect x="26" y="76.664" fill="#9D9D9D" width="4" height="6.665"/>
<path fill="#F68C1E" d="M30,70v20h60V70H30z M83.333,83.333H36.667v-6.666h46.666V83.333z"/>
<rect x="76.667" y="36.667" fill="#FCEAED" width="6.666" height="6.667"/>
<rect x="76.667" y="36.667" fill="#F9CCD2" width="3.2" height="6.667"/>
<rect x="76.667" y="26" fill="#9D9D9D" width="6.666" height="4"/>
<path fill="#9D9D9D" d="M59.756,23.333h4.518c-1.172-2.416-2.653-4.653-4.389-6.667h-5.59
	C56.456,18.573,58.303,20.824,59.756,23.333z"/>
<path fill="#E53A34" d="M70,30v20h20V30H70z M83.333,43.333h-6.666v-6.667h6.666V43.333z"/>
<path fill="#F1F7E9" d="M52.961,48.248c2.33-3.268,3.706-7.262,3.706-11.581c0-9.912-7.209-18.131-16.667-19.718v18.337
	L52.961,48.248z"/>
<path fill="#DBEBC7" d="M40,21.035c7.376,1.556,12.667,8.016,12.667,15.631c0,3.112-0.901,6.1-2.592,8.694l2.886,2.887
	c2.33-3.268,3.706-7.262,3.706-11.581c0-9.912-7.209-18.131-16.667-19.718V21.035z"/>
<path fill="#F68E1E" d="M29.333,18.078c1.277-0.504,2.61-0.896,4-1.129v-6.734c-1.369,0.171-2.703,0.452-4,0.822V18.078z"/>
<path fill="#F68E1E" d="M48.251,52.966c-1.125,0.8-2.34,1.478-3.62,2.036l4.976,4.975c1.194-0.664,2.334-1.416,3.407-2.25
	L48.251,52.966z"/>
<path fill="#FFEBB2" d="M48.251,52.966L33.333,38.047V16.949c-1.39,0.233-2.723,0.625-4,1.129v21.626l15.297,15.298
	C45.911,54.443,47.126,53.766,48.251,52.966z"/>
<path fill="#7CB342" d="M36.667,10c-1.13,0-2.241,0.079-3.334,0.215v27.832l19.681,19.68c6.276-4.878,10.319-12.495,10.319-21.06
	C63.333,21.94,51.394,10,36.667,10z M52.961,48.248L40,35.286V16.949c9.458,1.586,16.667,9.806,16.667,19.718
	C56.667,40.986,55.291,44.979,52.961,48.248z"/>
</svg>
