<?xml version="1.0" encoding="utf-8"?>
<!-- Generator: Adobe Illustrator 16.0.0, SVG Export Plug-In . SVG Version: 6.00 Build 0)  -->
<!DOCTYPE svg PUBLIC "-//W3C//DTD SVG 1.0//EN" "http://www.w3.org/TR/2001/REC-SVG-20010904/DTD/svg10.dtd">
<svg version="1.0" id="Layer_1" xmlns="http://www.w3.org/2000/svg" xmlns:xlink="http://www.w3.org/1999/xlink" x="0px" y="0px"
	 width="100px" height="100px" viewBox="0 0 100 100" enable-background="new 0 0 100 100" xml:space="preserve">
<path fill="#7CB342" d="M83.332,39.999c-2.461,0-4.585,2.024-5.741,5h-4.258c0-10.032,2.019-19.604,5.645-28.333H55v4.258
	c2.977,1.156,5,3.281,5,5.742c0,3.682-4.479,6.668-10,6.668s-10-2.986-10-6.668c0-2.461,2.024-4.586,5-5.742v-4.258H21.022
	c3.626,8.729,5.645,18.303,5.645,28.333h-4.258c-1.156-2.977-3.281-5-5.742-5C12.985,39.999,10,44.477,10,50
	c0,5.521,2.985,10,6.667,10c2.461,0,4.586-2.025,5.742-5h4.258c0,10.032-2.019,19.603-5.645,28.334H45v-4.258
	c-2.976-1.156-5-3.281-5-5.742c0-3.683,4.479-6.669,10-6.669s10,2.986,10,6.669c0,2.461-2.023,4.586-5,5.742v4.258h23.978
	C75.352,74.603,73.333,65.032,73.333,55h4.258c1.156,2.975,3.28,5,5.741,5C87.016,60,90,55.521,90,50S87.016,39.999,83.332,39.999z
	 M67.529,66.665H64.42C61.571,62.67,56.271,60,50,60c-6.272,0-11.572,2.67-14.42,6.665h-3.109c0.561-3.844,0.863-7.733,0.863-11.665
	V44.999c0-3.933-0.303-7.821-0.863-11.665h3.109c2.848,3.993,8.148,6.665,14.42,6.665c6.271,0,11.571-2.672,14.42-6.665h3.109
	c-0.561,3.844-0.862,7.732-0.862,11.665V55C66.667,58.932,66.97,62.821,67.529,66.665z"/>
<path fill="#F1F7E9" d="M32.471,66.665h3.109C38.428,62.67,43.728,60,50,60c6.271,0,11.571,2.67,14.42,6.665h3.109
	c-0.56-3.844-0.862-7.733-0.862-11.665V44.999c0-3.933,0.302-7.821,0.862-11.665H64.42c-2.849,3.993-8.148,6.665-14.42,6.665
	c-6.272,0-11.572-2.672-14.42-6.665h-3.109c0.56,3.844,0.863,7.732,0.863,11.665V55C33.333,58.932,33.031,62.821,32.471,66.665z"/>
<path fill="#DBEBC7" d="M36.673,65.329c0.43-3.477,0.66-6.943,0.66-10.329V44.999c0-1.543-0.045-3.104-0.136-4.678
	c3.563,2.359,8.027,3.678,12.802,3.678c7.01,0,13.344-2.848,17.146-7.65c0.036-0.329,0.082-0.655,0.122-0.983
	c0.082-0.678,0.162-1.356,0.261-2.031H64.42c-2.849,3.993-8.148,6.665-14.42,6.665c-6.272,0-11.572-2.672-14.42-6.665h-3.109
	c0.56,3.844,0.863,7.732,0.863,11.665V55c0,3.932-0.302,7.821-0.863,11.665h3.109C35.911,66.201,36.278,65.756,36.673,65.329z"/>
<path fill="#568B3F" d="M14,50c0-4.472,1.958-8.256,4.656-9.535c-0.627-0.299-1.294-0.466-1.989-0.466
	C12.985,39.999,10,44.477,10,50c0,5.521,2.985,10,6.667,10c0.695,0,1.362-0.167,1.989-0.466C15.957,58.255,14,54.471,14,50z"/>
<path fill="#568B3F" d="M86,50c0,4.471-1.957,8.255-4.656,9.534C81.972,59.833,82.637,60,83.332,60C87.016,60,90,55.521,90,50
	c0-5.522-2.984-10.001-6.668-10.001c-0.694,0-1.36,0.167-1.988,0.466C84.043,41.745,86,45.529,86,50z"/>
</svg>
