<?xml version="1.0" encoding="utf-8"?>
<!-- Generator: Adobe Illustrator 16.0.0, SVG Export Plug-In . SVG Version: 6.00 Build 0)  -->
<!DOCTYPE svg PUBLIC "-//W3C//DTD SVG 1.0//EN" "http://www.w3.org/TR/2001/REC-SVG-20010904/DTD/svg10.dtd">
<svg version="1.0" id="Layer_1" xmlns="http://www.w3.org/2000/svg" xmlns:xlink="http://www.w3.org/1999/xlink" x="0px" y="0px"
	 width="100px" height="100px" viewBox="0 0 100 100" enable-background="new 0 0 100 100" xml:space="preserve">
<rect x="16.667" y="16.665" fill="#E0F2F7" width="53.333" height="46.669"/>
<path fill="#BDBCBC" d="M70,9.999H16.667C13.001,9.999,10,13,10,16.665v46.669c0,3.665,3.001,6.667,6.667,6.667H70
	c3.666,0,6.666-3.002,6.666-6.667V16.665C76.666,13,73.666,9.999,70,9.999z M70,63.334H16.667V16.665H70V63.334z"/>
<rect x="70" y="25.999" fill="#9D9D9D" width="6.666" height="4"/>
<rect x="39.333" y="63.334" fill="#9D9D9D" width="4" height="6.667"/>
<rect x="49.998" y="36.665" fill="#E0F2F7" width="26.668" height="40.002"/>
<path fill="#BDBCBC" d="M76.666,29.999H49.998c-3.665,0-6.666,3.001-6.666,6.667v40.002c0,3.666,3.001,6.667,6.666,6.667h26.668
	c3.666,0,6.668-3.001,6.668-6.667V36.665C83.334,33,80.332,29.999,76.666,29.999z M76.666,76.667H49.998V36.665h26.668V76.667z"/>
<rect x="76.666" y="46.001" fill="#9D9D9D" width="6.668" height="4.001"/>
<rect x="59.334" y="76.667" fill="#9D9D9D" width="4" height="6.667"/>
<rect x="70" y="56.668" fill="#E0F2F7" width="13.334" height="26.666"/>
<path fill="#455A64" d="M83.334,50.002H70c-3.665,0-6.666,3-6.666,6.666v26.666c0,3.665,3.001,6.667,6.666,6.667h13.334
	c3.664,0,6.666-3.002,6.666-6.667V56.668C90,53.002,86.998,50.002,83.334,50.002z M83.334,83.334H70V56.668h13.334V83.334z"/>
<path fill="#B6E2EB" d="M49.998,25.999c-5.881,0-10.666,4.785-10.666,10.667v22.669H20.667V16.665h-4v46.669h26.666V36.665
	c0-3.666,3.001-6.667,6.666-6.667H70v-4H49.998z"/>
<path fill="#B6E2EB" d="M70,46.001c-5.881,0-10.666,4.785-10.666,10.667v15.999h-5.336V36.665h-4v40.002h13.336V56.668
	c0-3.666,3.001-6.666,6.666-6.666h6.666v-4.001H70z"/>
<polygon fill="#B6E2EB" points="74,79.334 74,56.668 70,56.668 70,83.334 83.334,83.334 83.334,79.334 "/>
</svg>
